<?xml version="1.0" encoding="UTF-8" standalone="no"?>
<!-- Created with Inkscape (http://www.inkscape.org/) -->

<svg
   xmlns:dc="http://purl.org/dc/elements/1.1/"
   xmlns:cc="http://creativecommons.org/ns#"
   xmlns:rdf="http://www.w3.org/1999/02/22-rdf-syntax-ns#"
   xmlns:svg="http://www.w3.org/2000/svg"
   xmlns="http://www.w3.org/2000/svg"
   xmlns:sodipodi="http://sodipodi.sourceforge.net/DTD/sodipodi-0.dtd"
   xmlns:inkscape="http://www.inkscape.org/namespaces/inkscape"
   width="600"
   height="800"
   id="svg2"
   version="1.1"
   inkscape:version="0.91 r13725"
   viewBox="0 0 600 800.0000000000003"
   sodipodi:docname="drawing.svg"
   inkscape:export-filename="C:\Users\kail.SYNAPTICS-INC\Dropbox\eagle\Staryu\logo.png"
   inkscape:export-xdpi="72"
   inkscape:export-ydpi="72">
  <defs
     id="defs4" />
  <sodipodi:namedview
     id="base"
     pagecolor="#ffffff"
     bordercolor="#666666"
     borderopacity="1.0"
     inkscape:pageopacity="0.0"
     inkscape:pageshadow="2"
     inkscape:zoom="0.6999999996306513"
     inkscape:cx="-164.6877934807204"
     inkscape:cy="315.6825850350162"
     inkscape:document-units="px"
     inkscape:current-layer="layer1"
     showgrid="false"
     inkscape:window-width="1920"
     inkscape:window-height="1017"
     inkscape:window-x="-4"
     inkscape:window-y="-4"
     inkscape:window-maximized="1"
     showguides="true"
     inkscape:guide-bbox="true"
     inkscape:snap-object-midpoints="true"
     inkscape:snap-center="true">
    <sodipodi:guide
       position="0,400.0000000000002"
       orientation="0,1"
       id="guide4136"
       inkscape:label=""
       inkscape:color="rgb(0,0,255)" />
    <sodipodi:guide
       position="300,0"
       orientation="1,0"
       id="guide4138"
       inkscape:label=""
       inkscape:color="rgb(0,0,255)" />
  </sodipodi:namedview>
  <metadata
     id="metadata7">
    <rdf:RDF>
      <cc:Work
         rdf:about="">
        <dc:format>image/svg+xml</dc:format>
        <dc:type
           rdf:resource="http://purl.org/dc/dcmitype/StillImage" />
        <dc:title></dc:title>
      </cc:Work>
    </rdf:RDF>
  </metadata>
  <g
     inkscape:label="Layer 1"
     inkscape:groupmode="layer"
     id="layer1"
     transform="translate(0,-252.3621826171875)">
    <path
       id="path4187-3"
       style="color:#000000;text-decoration:none;text-decoration-line:none;text-decoration-style:solid;text-decoration-color:#000000;clip-rule:nonzero;display:inline;overflow:visible;visibility:visible;opacity:1;isolation:auto;color-interpolation:sRGB;color-interpolation-filters:linearRGB;fill:#000000;fill-opacity:1;fill-rule:nonzero;stroke:#000000;stroke-width:1.5911791325;stroke-linecap:round;stroke-linejoin:round;stroke-miterlimit:4;stroke-dasharray:none;stroke-dashoffset:0;stroke-opacity:1;color-rendering:auto;image-rendering:auto;shape-rendering:auto;text-rendering:auto;enable-background:accumulate"
       d="m 308.239700116231,568.6179727929275 0,46.3490191162226 c -3e-13,5.4305450759127 4.371882858948,9.8024279348614 9.8024279348612,9.8024279348614 l 20.100720876584,0 15.7700388475494,0 1.65798878742,0 c 2.7152725379566,0 4.9012139674307,-2.1859414294745 4.9012139674305,-4.9012139674309 l 0,-0.6681733104033 0,-1.2138162716215 c 0,-5.4305450759133 4.3718828589481,-9.802427934862 9.8024279348614,-9.802427934862 l 5.9120893482133,0 a 84.53066951648534,84.53066951648534 0 0 0 -67.9469076969201,-39.5658155667664 z m -13.1203200464073,0.4460870525041 a 84.53066951648534,84.53066951648534 0 0 0 -63.2582073038586,40.9289657014588 c 3.6806795887268,2.6672975360982 6.0748249682259,6.9915814761044 6.0748249682257,11.9045892380799 l 0,21.8984708435434 c -0.082515104184,0.5137542979598 -0.135932106128,1.0379324947653 -0.135932106128,1.5756637090609 l 0,26.0817335462142 c 0,5.4305450759133 4.3718828589482,9.8024279348615 9.8024279348614,9.8024279348615 l 18.7299125950682,0 c 0.301911878016,0 0.5992903555599,-0.01949281053 0.8940886417149,-0.045948880945 l 18.090457335255,0 c 5.4305450759132,0 9.8024279348615,-4.3718828589487 9.8024279348614,-9.8024279348612 l 0,-102.3434741574124 z m 22.1799077393299,70.5583357639416 c -5.4305450759132,0 -9.8024279348617,4.3718828589482 -9.8024279348613,9.8024279348615 l 0,87.9653034951449 a 84.53066951648534,84.53066951648534 0 0 0 70.4109164375778,-42.5639800484064 l -6.6415278332098,0 c -5.4305450759134,0 -9.8024279348613,-4.3718828589483 -9.8024279348614,-9.8024279348616 l 0,-6.0403633075166 0,-26.5871712366054 0,-2.9713609677549 c 0,-5.4305450759133 -4.3718828589482,-9.8024279348615 -9.8024279348612,-9.8024279348615 l -34.3621047997839,0 z m -85.0743530690431,56.9364071005552 a 84.53066951648534,84.53066951648534 0 0 0 63.3903103365743,40.4388443047156 l 0,-30.6364163698546 c 0,-5.4305450759124 -4.3718828589481,-9.802427934861 -9.8024279348614,-9.802427934861 l -53.5878824017129,0 z m 59.4903990663961,-286.4012894647889 -20.177302344825,40.6800759296748 c -11.0969389821952,22.3740417613213 -25.5611212672645,51.7131443924751 -32.1431567574976,65.1976329870641 l -11.9677689493787,24.5175570573897 20.5774405163848,28.2126129000228 0.4633178828587,0.6356261864014 a 100.7165442408522,100.7165442408522 0 0 1 43.2895894599905,-16.214211363348 l -0.01914536706,-63.1375914913784 -0.022974440472,-79.8917022058267 z m 18.7069381545958,0 -0.017230830354,79.5202820848572 -0.013401756942,62.8618982057108 a 100.7165442408522,100.7165442408522 0 0 1 45.5295974060429,13.9320836097628 l 19.135794376746,-26.2195801890482 -32.3173795977462,-65.0463845872882 -32.3173795977462,-65.0482991239943 z m -101.0741363213161,140.3872330428869 c -6.8321341726977,0.6116418037019 -133.01651259970148,19.09058061078 -134.54023794267877,19.7024972417302 -1.21277021426047,0.4870393913498 22.56216346441893,8.6949629413803 73.51820951146055,25.3810131118081 26.4579658227912,8.6639168337158 48.9150590919095,15.9636227479552 62.6283247275754,20.3764141622516 a 100.7165442408522,100.7165442408522 0 0 1 23.2443901478813,-35.1011159683103 c -17.8880664474716,-24.4245149805256 -23.0182585281414,-30.5228553134575 -24.8506864442385,-30.3588085474796 z m 181.896303366272,0.4269416854438 c -0.6518498132196,0.00890706704 -1.0122510579354,0.071287329105 -1.1200039730262,0.1799664503667 -0.5781535359505,0.5831231404594 -9.190570839152,12.2330946986625 -19.3042736068764,26.0759899360961 a 100.7165442408522,100.7165442408522 0 0 1 26.7633086135602,37.3794146484834 c 9.0594445770806,-2.838147202721 20.2965187331864,-6.4145388549358 32.7290049895419,-10.4457122680867 27.5806210244358,-8.9428826945264 61.9621731540263,-20.0758779066939 76.4034163274443,-24.739643315289 14.4412431734169,-4.6637654085941 25.8832491320035,-8.6049951802861 25.4269619927524,-8.75709089337 -0.4562871392518,-0.1520957130836 -32.3414715489241,-4.8621583383915 -70.8570034900823,-10.4667721718531 -46.6226979000038,-6.7843336034639 -65.4784621607769,-9.2885018556541 -70.041410853314,-9.2261523863474 z m -325.63206110800126,37.4693978736666 c -0.18684298163369,0.1868429816335 22.72086260948791,22.8742299834588 50.90561647656837,50.4174096165309 28.1847538670804,27.5431796330721 51.4446060101422,50.1008548495762 51.6886619893336,50.1283145739211 0.2720665045578,0.030611301732 16.1048215078334,-5.0327065272611 38.5740855530445,-12.277923895755 a 100.7165442408522,100.7165442408522 0 0 1 -2.9522156006946,-23.7440842281547 100.7165442408522,100.7165442408522 0 0 1 1.9068785592036,-19.3368207308788 l -38.9531638208379,-12.7144382647292 c -81.61956078157159,-26.6396637399339 -100.83570517332444,-32.806615054227 -101.16986315661745,-32.4724570709343 z m 468.81260320498199,1.8073226504897 c -0.1969766204677,-0.1969766204686 -32.0488325545837,9.8897145039573 -70.7823365585463,22.4153957541721 l -60.6467792368363,19.6125140165459 a 100.7165442408522,100.7165442408522 0 0 1 2.2668114599367,20.6884836453346 100.7165442408522,100.7165442408522 0 0 1 -3.3983026531989,25.4556800433435 c 17.4306567309526,5.739407716189 31.8407054892881,10.3375352560141 32.1871911017361,10.2638312810137 1.0243543640303,-0.2178993462511 100.770586755555,-98.0387338717635 100.3734158869086,-98.4359047404098 z m -321.6727991999345,103.855958155174 c -18.1040654156958,5.7813176934693 -38.2380773175582,12.6527105400022 -38.7770264438835,13.6353304203285 -0.4203006213232,0.7662982015428 -6.0754673885184,32.0489615515612 -12.5689334750713,69.5187423325691 -6.4934660865525,37.4697807810079 -12.0484935678196,69.2296472899584 -12.344932680466,70.5774811310024 -0.6524590137017,2.9665664922211 -5.5554673252604,9.4925648500738 49.2686875929148,-65.5920275485065 l 39.4375416074628,-54.0129095504509 a 100.7165442408522,100.7165442408522 0 0 1 -25.0153366009569,-34.1266167849426 z m 182.9090932837608,1.4971677041134 a 100.7165442408522,100.7165442408522 0 0 1 -28.3810921301533,36.1445384730955 c 7.7370259667051,10.9500833284576 22.7718117252482,31.8029706260354 40.1516637988113,55.6287785303389 24.5305759069905,33.6286400406659 44.687536824248,60.8790751527474 44.7925007742209,60.5567960116533 0.1049639499729,-0.3222791410941 -5.1883471348524,-32.3180097852669 -11.7629135218327,-71.1020641884536 l -11.9543671924363,-70.5162159564095 -32.6926287921276,-10.6620549158672 c -0.054150407544,-0.017662102451 -0.099069417372,-0.03213802182 -0.1531629364821,-0.049777954357 z m -142.2730516983243,43.9883953576907 c -6.7560452791092,7.2915506144625 -17.1383245022139,21.7416816766895 -40.1516637988112,53.3523943868721 -22.1763541338926,30.4610448075805 -41.8977800239392,57.5447448787461 -43.8237452009723,60.1853758906841 -1.9259651770332,2.640631011937 -2.9858655450802,4.6256226687467 -2.3567946851201,4.4110925706873 0.6290708599606,-0.2145300980593 28.9404894827955,-14.947170971299 62.9155052334798,-32.7385776730722 l 61.7744413566869,-32.3480121850422 0.00765814682,-33.5733156769005 c 6.618958073e-4,-2.485950453005 -0.015121791282,-3.9692082752315 -0.01914536706,-6.1188593124648 a 100.7165442408522,100.7165442408522 0 0 1 -38.3462556850272,-13.1700980007638 z m 98.2846563406338,2.3051021940571 a 100.7165442408522,100.7165442408522 0 0 1 -41.2544369414833,11.5772034613492 l 0.00574361012,5.7857299256158 0.034461660709,33.194237409107 62.456016424033,33.0334163258002 c 34.350031929217,18.167955121609 62.7585820401094,33.0553925476803 63.1299333445543,33.0831942801575 0.3713513044457,0.027801732476 -19.1712966902087,-27.1887186696398 -43.4274361028242,-60.4802145434129 l -40.9442819951067,-56.1935668586168 z"
       inkscape:connector-curvature="0" />
    <text
       xml:space="preserve"
       style="font-style:normal;font-variant:normal;font-weight:normal;font-stretch:normal;font-size:30px;line-height:125%;font-family:'Lucida Sans';-inkscape-font-specification:'Lucida Sans';text-align:center;letter-spacing:0px;word-spacing:0px;text-anchor:middle;fill:#000000;fill-opacity:1;stroke:none;stroke-width:1px;stroke-linecap:butt;stroke-linejoin:miter;stroke-opacity:1"
       x="301.06149"
       y="927.71527"
       id="text4140"
       sodipodi:linespacing="125%"><tspan
         sodipodi:role="line"
         id="tspan4142"
         x="301.06149"
         y="927.71527"
         style="font-style:normal;font-variant:normal;font-weight:normal;font-stretch:normal;font-size:70px;font-family:Ethnocentric;-inkscape-font-specification:Ethnocentric">STARYÚ</tspan></text>
  </g>
</svg>
