<?xml version="1.0" encoding="UTF-8" standalone="no"?>
<svg
   xmlns:dc="http://purl.org/dc/elements/1.1/"
   xmlns:cc="http://creativecommons.org/ns#"
   xmlns:rdf="http://www.w3.org/1999/02/22-rdf-syntax-ns#"
   xmlns:svg="http://www.w3.org/2000/svg"
   xmlns="http://www.w3.org/2000/svg"
   viewBox="0 0 600 800.0000000000003"
   version="1.1"
   id="svg4146"
   height="800"
   width="600">
  <defs
     id="defs4148" />
  <metadata
     id="metadata4151">
    <rdf:RDF>
      <cc:Work
         rdf:about="">
        <dc:format>image/svg+xml</dc:format>
        <dc:type
           rdf:resource="http://purl.org/dc/dcmitype/StillImage" />
        <dc:title></dc:title>
      </cc:Work>
    </rdf:RDF>
  </metadata>
  <g
     id="layer1"
     transform="translate(0,-252.3621826171877)">
    <path
       id="path4475"
       d="m 291.6969064203852,409.98059432906 -20.1766897017424,40.6788407596583 -32.1421807936035,65.1956533905889 -11.9674055715132,24.516812630035 20.576815723108,28.2117562795577 0.4633038149207,0.6356068867857 10.060085482228,-5.9207156437227 10.6412572003524,-4.7032691926105 11.1126546230808,-3.444706537329 11.4742777513094,-2.1450276769823 -0.019144785763,-63.1356744432338 -0.022973742377,-79.8892764527473"
       style="color:#000000;text-decoration:none;text-decoration-line:none;text-decoration-style:solid;text-decoration-color:#000000;clip-rule:nonzero;display:inline;overflow:visible;visibility:visible;opacity:1;isolation:auto;color-interpolation:sRGB;color-interpolation-filters:linearRGB;fill:#000000;fill-opacity:1;fill-rule:nonzero;stroke:#000000;stroke-width:1.5911307335;stroke-linecap:round;stroke-linejoin:round;stroke-miterlimit:4;stroke-dasharray:none;stroke-dashoffset:0;stroke-opacity:1;color-rendering:auto;image-rendering:auto;shape-rendering:auto;text-rendering:auto;enable-background:accumulate" />
    <path
       id="path4473"
       d="m 310.4032765750097,409.9805943290596 -0.01723030611,79.5178676091294 -0.013401350393,62.8599895284283 11.9470347821812,1.4173270146066 11.6521753456728,2.8194149612641 11.23462402798,4.1839591203942 10.6943808335855,5.5109594928937 19.1352133564277,-26.2187840832686 -32.3163983442238,-65.0444095823464 -32.3163983451205,-65.0463240611026"
       style="color:#000000;text-decoration:none;text-decoration-line:none;text-decoration-style:solid;text-decoration-color:#000000;clip-rule:nonzero;display:inline;overflow:visible;visibility:visible;opacity:1;isolation:auto;color-interpolation:sRGB;color-interpolation-filters:linearRGB;fill:#000000;fill-opacity:1;fill-rule:nonzero;stroke:#000000;stroke-width:1.5911307335;stroke-linecap:round;stroke-linejoin:round;stroke-miterlimit:4;stroke-dasharray:none;stroke-dashoffset:0;stroke-opacity:1;color-rendering:auto;image-rendering:auto;shape-rendering:auto;text-rendering:auto;enable-background:accumulate" />
    <path
       id="path4471"
       d="m 209.3322091706648,550.3635647915722 -134.53615289478284,19.7018990142875 73.51597727653964,25.3802424672183 62.6264231426626,20.3757954725994 4.3957406911432,-9.6593082887764 5.3716355183299,-9.1187669574523 6.2988685077961,-8.5047418817038 7.1774396604391,-7.8172330642243 -24.8499319021278,-30.3578867619484 0,0"
       style="color:#000000;text-decoration:none;text-decoration-line:none;text-decoration-style:solid;text-decoration-color:#000000;clip-rule:nonzero;display:inline;overflow:visible;visibility:visible;opacity:1;isolation:auto;color-interpolation:sRGB;color-interpolation-filters:linearRGB;fill:#000000;fill-opacity:1;fill-rule:nonzero;stroke:#000000;stroke-width:1.5911307335;stroke-linecap:round;stroke-linejoin:round;stroke-miterlimit:4;stroke-dasharray:none;stroke-dashoffset:0;stroke-opacity:1;color-rendering:auto;image-rendering:auto;shape-rendering:auto;text-rendering:auto;enable-background:accumulate" />
    <path
       id="path4469"
       d="m 391.2229896151099,550.7904935146191 -1.1199699662247,0.1799609850941 -19.3036874707812,26.0751981909441 8.2779848066822,8.1371510815984 7.264480012953,9.004577890007 6.1838716043927,9.7782833289109 5.0361595747239,10.4582673956154 32.7280112381235,-10.4453951051671 76.4010964891041,-24.7388921450629 25.4261899537657,-8.7568250005329 -70.8548520586534,-10.4664543696856 -70.039284184085,-9.2258722517214 0,0"
       style="color:#000000;text-decoration:none;text-decoration-line:none;text-decoration-style:solid;text-decoration-color:#000000;clip-rule:nonzero;display:inline;overflow:visible;visibility:visible;opacity:1;isolation:auto;color-interpolation:sRGB;color-interpolation-filters:linearRGB;fill:#000000;fill-opacity:1;fill-rule:nonzero;stroke:#000000;stroke-width:1.5911307335;stroke-linecap:round;stroke-linejoin:round;stroke-miterlimit:4;stroke-dasharray:none;stroke-dashoffset:0;stroke-opacity:1;color-rendering:auto;image-rendering:auto;shape-rendering:auto;text-rendering:auto;enable-background:accumulate" />
    <path
       id="path4467"
       d="m 65.60081568066448,588.2587537032974 50.90407082801602,50.4158787916042 51.6870925652645,50.126792526406 38.5729143275482,-12.2775511003316 -2.1836472584429,-11.7837043040347 -0.76847870474,-11.9596589822612 0.4860181421981,-9.7142081516878 1.4208025190554,-9.6220254543524 -38.9519810852921,-12.7140522162606 -101.16679133360703,-32.4714711090819 0,0"
       style="color:#000000;text-decoration:none;text-decoration-line:none;text-decoration-style:solid;text-decoration-color:#000000;clip-rule:nonzero;display:inline;overflow:visible;visibility:visible;opacity:1;isolation:auto;color-interpolation:sRGB;color-interpolation-filters:linearRGB;fill:#000000;fill-opacity:1;fill-rule:nonzero;stroke:#000000;stroke-width:1.5911307335;stroke-linecap:round;stroke-linejoin:round;stroke-miterlimit:4;stroke-dasharray:none;stroke-dashoffset:0;stroke-opacity:1;color-rendering:auto;image-rendering:auto;shape-rendering:auto;text-rendering:auto;enable-background:accumulate" />
    <path
       id="path4465"
       d="m 534.3991843193349,590.0660214782259 -70.7801873934612,22.4147151554364 -60.6449378171133,19.6119185208446 1.6691783943372,10.2852200239489 0.5975642371037,10.4026354562243 -0.8844385780437,12.8362098504366 -2.5137608921556,12.6186972819737 32.1862138022924,10.2635196404209 100.3703682470414,-98.4329159292854 0,0"
       style="color:#000000;text-decoration:none;text-decoration-line:none;text-decoration-style:solid;text-decoration-color:#000000;clip-rule:nonzero;display:inline;overflow:visible;visibility:visible;opacity:1;isolation:auto;color-interpolation:sRGB;color-interpolation-filters:linearRGB;fill:#000000;fill-opacity:1;fill-rule:nonzero;stroke:#000000;stroke-width:1.5911307335;stroke-linecap:round;stroke-linejoin:round;stroke-miterlimit:4;stroke-dasharray:none;stroke-dashoffset:0;stroke-opacity:1;color-rendering:auto;image-rendering:auto;shape-rendering:auto;text-rendering:auto;enable-background:accumulate" />
    <path
       id="path4463"
       d="m 212.7361520771316,693.9188262526446 -38.7758490568128,13.6349164107328 -12.5685518442846,69.5166315331203 -12.3445578505015,70.5753381863386 3.8304972622869,-3.5267221050294 45.4366943835511,-62.0633138715564 39.4363441647312,-54.0112695556977 -7.5864296511834,-7.4989567975797 -6.733181639421,-8.23537295679 -5.827020259758,-8.8996032299784 -4.8679455086075,-9.4916476135601 0,0"
       style="color:#000000;text-decoration:none;text-decoration-line:none;text-decoration-style:solid;text-decoration-color:#000000;clip-rule:nonzero;display:inline;overflow:visible;visibility:visible;opacity:1;isolation:auto;color-interpolation:sRGB;color-interpolation-filters:linearRGB;fill:#000000;fill-opacity:1;fill-rule:nonzero;stroke:#000000;stroke-width:1.5911307335;stroke-linecap:round;stroke-linejoin:round;stroke-miterlimit:4;stroke-dasharray:none;stroke-dashoffset:0;stroke-opacity:1;color-rendering:auto;image-rendering:auto;shape-rendering:auto;text-rendering:auto;enable-background:accumulate" />
    <path
       id="path4461"
       d="m 395.6396916882479,695.4159484987549 -5.4927436104651,10.2208208928513 -6.6083564049117,9.4912174844934 -7.6528639957013,8.6710585494287 -8.6262663837302,7.7603440885565 40.1504446733235,55.6270894721022 44.7911407375535,60.5549573245663 -11.7625563634928,-71.0999053142657 -11.9540042220173,-70.5140748715389 -32.6916361453536,-10.6617311839282 -0.1531582852053,-0.049776442266 0,0"
       style="color:#000000;text-decoration:none;text-decoration-line:none;text-decoration-style:solid;text-decoration-color:#000000;clip-rule:nonzero;display:inline;overflow:visible;visibility:visible;opacity:1;isolation:auto;color-interpolation:sRGB;color-interpolation-filters:linearRGB;fill:#000000;fill-opacity:1;fill-rule:nonzero;stroke:#000000;stroke-width:1.5911307335;stroke-linecap:round;stroke-linejoin:round;stroke-miterlimit:4;stroke-dasharray:none;stroke-dashoffset:0;stroke-opacity:1;color-rendering:auto;image-rendering:auto;shape-rendering:auto;text-rendering:auto;enable-background:accumulate" />
    <path
       id="path4459"
       d="m 253.3709598289977,739.403008235169 -40.1504446724268,53.3507744468825 -43.8224145804688,60.1835484809477 -2.3567231257818,4.4109586368706 62.9135949291042,-32.7375836310046 61.772565698361,-32.3470300016237 0.00765791413,-33.5722962895436 -0.019144785763,-6.1186735254737 -10.0512735825814,-1.8175380136106 -9.7908300261411,-2.8178161195035 -9.4560510665159,-3.7925635822113 -9.0469367019119,-4.7417804017299 0,0"
       style="color:#000000;text-decoration:none;text-decoration-line:none;text-decoration-style:solid;text-decoration-color:#000000;clip-rule:nonzero;display:inline;overflow:visible;visibility:visible;opacity:1;isolation:auto;color-interpolation:sRGB;color-interpolation-filters:linearRGB;fill:#000000;fill-opacity:1;fill-rule:nonzero;stroke:#000000;stroke-width:1.5911307335;stroke-linecap:round;stroke-linejoin:round;stroke-miterlimit:4;stroke-dasharray:none;stroke-dashoffset:0;stroke-opacity:1;color-rendering:auto;image-rendering:auto;shape-rendering:auto;text-rendering:auto;enable-background:accumulate" />
    <path
       id="path4457"
       d="m 351.6526319509412,741.7080404399287 -9.8014486043589,4.5460503587672 -10.2023708239706,3.4615763657788 -10.5137571938379,2.3519759888152 -10.7356077103739,1.2172492287717 0.00574343537,5.7855542533812 0.034460614911,33.1932295317989 62.4541200707976,33.032413331572 63.1280165291088,33.0821897738374 -43.4261175148209,-60.4783781815156 -40.9430388028258,-56.1918606512068"
       style="color:#000000;text-decoration:none;text-decoration-line:none;text-decoration-style:solid;text-decoration-color:#000000;clip-rule:nonzero;display:inline;overflow:visible;visibility:visible;opacity:1;isolation:auto;color-interpolation:sRGB;color-interpolation-filters:linearRGB;fill:#000000;fill-opacity:1;fill-rule:nonzero;stroke:#000000;stroke-width:1.5911307335;stroke-linecap:round;stroke-linejoin:round;stroke-miterlimit:4;stroke-dasharray:none;stroke-dashoffset:0;stroke-opacity:1;color-rendering:auto;image-rendering:auto;shape-rendering:auto;text-rendering:auto;enable-background:accumulate" />
    <path
       id="path4455"
       d="m 308.2207710007496,568.4362425390627 0,46.347611819707 0.7679356449233,3.8225245012428 2.0967369358767,3.1149332204201 3.1149332204197,2.0967369358766 3.8225245021398,0.7679356458201 20.1001105577946,0 15.7695600214865,0 1.6579384463377,0 1.911262250173,-0.3839678224616 1.5574666111067,-1.0483684679384 1.0483684670415,-1.5574666102101 0.3839678224616,-1.9112622510701 0,-0.6681530220443 0,-1.213779417179 0.7679356467168,-3.8225245012429 2.0967369349799,-3.1149332213171 3.1149332204198,-2.0967369349795 3.8225245021397,-0.7679356458201 5.9119098386979,0 -6.0188515781178,-8.4146326658405 -6.9196057076781,-7.5363387431364 -7.7234476303462,-6.6016123683147 -8.4303773434313,-5.6104535431648 -9.0403948496239,-4.562862267687 -9.5535001498211,-3.4588385418846 -9.9696932404356,-2.2983823639613 -10.2889741232608,-1.0814937348142 0,0"
       style="color:#000000;text-decoration:none;text-decoration-line:none;text-decoration-style:solid;text-decoration-color:#000000;clip-rule:nonzero;display:inline;overflow:visible;visibility:visible;opacity:1;isolation:auto;color-interpolation:sRGB;color-interpolation-filters:linearRGB;fill:#000000;fill-opacity:1;fill-rule:nonzero;stroke:#000000;stroke-width:1.5911307335;stroke-linecap:round;stroke-linejoin:round;stroke-miterlimit:4;stroke-dasharray:none;stroke-dashoffset:0;stroke-opacity:1;color-rendering:auto;image-rendering:auto;shape-rendering:auto;text-rendering:auto;enable-background:accumulate" />
    <path
       id="path4453"
       d="m 295.1008493259595,568.8823160460799 -9.7254146608783,1.6764198851199 -9.3698416917661,2.7652341192861 -8.9322868018186,3.8010048784803 -8.4127499919324,4.78373216001 -7.8112312594176,5.7134159656712 -7.1277306087583,6.5900562936682 -6.3622480363667,7.4136531484878 -5.5147835422434,8.1842065247471 2.5019021347244,2.2943968331524 1.9156310614577,2.8156012914236 1.2255245918903,3.2366591740738 0.4315827296088,3.5575704802053 0,21.897805938945 -0.1359279781982,1.5756158670199 0,26.0809416263146 0.7679356458201,3.822524502139 2.0967369358767,3.1149332204202 3.1149332204196,2.0967369349803 3.8225245021398,0.7679356467163 18.7293438970015,0 0.8940614954795,-0.045947485651 18.0899080536016,0 3.8225245021397,-0.7679356467165 3.1149332204195,-2.0967369349802 2.0967369358768,-3.1149332204195 0.767935644923,-3.8225245021396 0,-102.3403667009538"
       style="color:#000000;text-decoration:none;text-decoration-line:none;text-decoration-style:solid;text-decoration-color:#000000;clip-rule:nonzero;display:inline;overflow:visible;visibility:visible;opacity:1;isolation:auto;color-interpolation:sRGB;color-interpolation-filters:linearRGB;fill:#000000;fill-opacity:1;fill-rule:nonzero;stroke:#000000;stroke-width:1.5911307335;stroke-linecap:round;stroke-linejoin:round;stroke-miterlimit:4;stroke-dasharray:none;stroke-dashoffset:0;stroke-opacity:1;color-rendering:auto;image-rendering:auto;shape-rendering:auto;text-rendering:auto;enable-background:accumulate" />
    <path
       id="path4451"
       d="m 317.2800836168722,639.4385094457593 -3.8225245021397,0.7679356467171 -3.1149332204195,2.0967369349798 -2.0967369349798,3.1149332204197 -0.76793564582,3.8225245021398 0,87.9626326029852 10.8298369324091,-1.0841103451554 10.4728767177131,-2.4290722222834 10.0045766665631,-3.7067282482542 9.424936776268,-4.9170784239677 8.7339570495184,-6.0601227485263 7.9316374845211,-7.1358612237234 7.0179780812758,-8.144293845972 5.9929788406792,-9.0854206197553 -6.6413261764385,0 -3.822524501243,-0.7679356458202 -3.1149332204195,-2.0967369349796 -2.0967369349799,-3.1149332213166 -0.7679356467169,-3.8225245012427 0,-6.0401799045643 0,-26.5863639693755 0,-2.9712707480486 -0.7679356458199,-3.8225245021398 -2.0967369349799,-3.1149332204197 -3.1149332204198,-2.0967369349798 -3.8225245021397,-0.7679356467171 -8.590265365832,0 -8.5902653658321,0 -8.5902653649351,0 -8.590265365832,0"
       style="color:#000000;text-decoration:none;text-decoration-line:none;text-decoration-style:solid;text-decoration-color:#000000;clip-rule:nonzero;display:inline;overflow:visible;visibility:visible;opacity:1;isolation:auto;color-interpolation:sRGB;color-interpolation-filters:linearRGB;fill:#000000;fill-opacity:1;fill-rule:nonzero;stroke:#000000;stroke-width:1.5911307335;stroke-linecap:round;stroke-linejoin:round;stroke-miterlimit:4;stroke-dasharray:none;stroke-dashoffset:0;stroke-opacity:1;color-rendering:auto;image-rendering:auto;shape-rendering:auto;text-rendering:auto;enable-background:accumulate" />
    <path
       id="path4187-3"
       d="m 232.2083136613739,696.3731877859966 5.5619577193061,8.1253651511241 6.4002560078685,7.3523721704067 7.1567752208438,6.5272095234266 7.8315153591285,5.6498772101859 8.4244764209296,4.7203752324765 8.9356584098333,3.7387035885057 9.3650613204595,2.70486227917 9.7126851572924,1.6188513035719 0,-30.6354861564056 -0.7679356458198,-3.8225245012427 -2.0967369349799,-3.1149332204195 -3.1149332204197,-2.0967369349803 -3.8225245021398,-0.7679356458193 -53.5862553123024,0"
       style="color:#000000;text-decoration:none;text-decoration-line:none;text-decoration-style:solid;text-decoration-color:#000000;clip-rule:nonzero;display:inline;overflow:visible;visibility:visible;opacity:1;isolation:auto;color-interpolation:sRGB;color-interpolation-filters:linearRGB;fill:#000000;fill-opacity:1;fill-rule:nonzero;stroke:#000000;stroke-width:1.5911307335;stroke-linecap:round;stroke-linejoin:round;stroke-miterlimit:4;stroke-dasharray:none;stroke-dashoffset:0;stroke-opacity:1;color-rendering:auto;image-rendering:auto;shape-rendering:auto;text-rendering:auto;enable-background:accumulate" />
    <path
       id="path4447"
       d="m 430.9232630981206,925.6224725224018 0,0"
       style="font-style:normal;font-variant:normal;font-weight:normal;font-stretch:normal;font-size:80px;line-height:125%;font-family:Ethnocentric;-inkscape-font-specification:Ethnocentric;text-align:center;letter-spacing:0px;word-spacing:0px;text-anchor:middle;fill:#000000;fill-opacity:1;stroke:none;stroke-width:1px;stroke-linecap:butt;stroke-linejoin:miter;stroke-opacity:1" />
    <path
       id="path4445"
       d="m 473.0189350798974,874.0962766226297 -20.3644646924827,2.6651480637814 0,-5.6719817767657 20.3644646924827,-4.7152619589973 0,7.7220956719816"
       style="font-style:normal;font-variant:normal;font-weight:normal;font-stretch:normal;font-size:80px;line-height:125%;font-family:Ethnocentric;-inkscape-font-specification:Ethnocentric;text-align:center;letter-spacing:0px;word-spacing:0px;text-anchor:middle;fill:#000000;fill-opacity:1;stroke:none;stroke-width:1px;stroke-linecap:butt;stroke-linejoin:miter;stroke-opacity:1" />
    <path
       id="path4443"
       d="m 490.9232630981202,905.6680306089622 -0.4452591116174,4.8530039863326 -1.3357773348517,4.2059367881549 -2.2262955580865,3.5588695899771 -3.1168137813213,2.9118023917995 -4.0073320045554,2.2647351936218 -4.8978502277904,1.6176679954444 -5.7883684510254,0.9706007972663 -6.6788866742597,0.3235335990892 -7.6879271070615,-0.3246013667429 -6.5261958997721,-0.9738041002277 -5.4328018223235,-1.6230068337134 -4.4077448747152,-2.2722095671976 -3.3314350797265,-2.9043280182233 -2.3405466970385,-3.5193621867882 -1.3325740318907,-4.2198177676544 -0.4441913439638,-4.8690205011386 0,-25.7630979498865 14.0774487471526,0 0,25.7630979498865 0.1708428246013,2.3234624145788 0.5125284738041,1.9134396355349 0.9738041002277,1.5546697038726 1.5546697038724,1.2471526195898 2.2892938496583,0.8883826879274 3.0410022779043,0.6150341685643 3.9293849658313,0.3075170842829 4.9544419134397,0.1025056947611 3.7585421412301,-0.119589977221 3.0751708428247,-0.3587699316633 2.4601366742595,-0.6321184510246 1.9134396355355,-0.9396355353078 1.4009111617313,-1.2471526195902 0.9225512528472,-1.5546697038725 0.5637813211846,-1.879271070615 0.1879271070613,-2.2209567198174 0,-25.7630979498865 14.2141230068335,0 0,25.7630979498865"
       style="font-style:normal;font-variant:normal;font-weight:normal;font-stretch:normal;font-size:80px;line-height:125%;font-family:Ethnocentric;-inkscape-font-specification:Ethnocentric;text-align:center;letter-spacing:0px;word-spacing:0px;text-anchor:middle;fill:#000000;fill-opacity:1;stroke:none;stroke-width:1px;stroke-linecap:butt;stroke-linejoin:miter;stroke-opacity:1" />
    <path
       id="path4441"
       d="m 430.9232630981206,925.6224725224018 0,0"
       style="font-style:normal;font-variant:normal;font-weight:normal;font-stretch:normal;font-size:80px;line-height:125%;font-family:Ethnocentric;-inkscape-font-specification:Ethnocentric;text-align:center;letter-spacing:0px;word-spacing:0px;text-anchor:middle;fill:#000000;fill-opacity:1;stroke:none;stroke-width:1px;stroke-linecap:butt;stroke-linejoin:miter;stroke-opacity:1" />
    <path
       id="path4439"
       d="m 426.7995444193052,879.9049326590757 -27.1298405466969,30.6150341685651 0,15.102505694761 -14.214123006834,0 0,-15.1708428246018 -27.881548974943,-30.5466970387243 18.1776765375854,0 10.9339407744876,12.7107061503424 1.4350797266515,1.640091116173 1.8451025056947,2.050113895216 1.7767653758542,2.050113895216 1.1617312072894,1.4350797266521 1.9817767653758,-2.596810933941 3.75854214123,-4.646924829157 10.3872437357632,-12.6423690205015 17.7676537585422,0 0,0"
       style="font-style:normal;font-variant:normal;font-weight:normal;font-stretch:normal;font-size:80px;line-height:125%;font-family:Ethnocentric;-inkscape-font-specification:Ethnocentric;text-align:center;letter-spacing:0px;word-spacing:0px;text-anchor:middle;fill:#000000;fill-opacity:1;stroke:none;stroke-width:1px;stroke-linecap:butt;stroke-linejoin:miter;stroke-opacity:1" />
    <path
       id="path4437"
       d="m 362.5188638953873,925.6224725224018 -18.9293849658313,0 -10.1822323462415,-12.0956719817772 -21.7312072892938,0 0,12.0956719817772 -14.1457858769933,0 0,-23.3712984054666 39.7722095671981,0 3.0239179954445,-0.3416856492031 2.5113895216402,-1.025056947608 1.6913439635533,-1.6230068337131 0.5637813211846,-2.1355353075169 -0.512528473804,-2.3234624145788 -1.5375854214125,-1.6400911161736 -2.4601366742597,-1.0250569476077 -3.2801822323464,-0.3416856492025 -39.7722095671979,0 9.2255125284737,-11.8906605922557 29.384965831435,0 3.9635535307516,0.1879271070621 4.1002277904328,0.5637813211839 3.9806378132121,0.9738041002284 3.6047835990888,1.5546697038723 3.109339407745,2.1697038724368 2.4943052391798,2.818906605923 1.6913439635538,3.5876993166286 0.5637813211843,4.4760820045555 -0.2050113895214,2.5968109339414 -0.6150341685651,2.4601366742596 -1.007972665148,2.2722095671983 -1.3838268792712,2.0330296127563 -1.6913439635534,1.7767653758541 -2.0671981776765,1.5034168564922 -2.3405466970387,1.1104783599088 -2.6480637813211,0.7346241457859 2.5968109339406,2.2551252847379 3.8268792710707,3.7585421412299 8.4054669703875,8.8838268792712"
       style="font-style:normal;font-variant:normal;font-weight:normal;font-stretch:normal;font-size:80px;line-height:125%;font-family:Ethnocentric;-inkscape-font-specification:Ethnocentric;text-align:center;letter-spacing:0px;word-spacing:0px;text-anchor:middle;fill:#000000;fill-opacity:1;stroke:none;stroke-width:1px;stroke-linecap:butt;stroke-linejoin:miter;stroke-opacity:1" />
    <path
       id="path4435"
       d="m 239.4597095673694,925.6224725224018 8.5421412300685,-11.7539863325741 11.4806378132117,0 4.2369020501139,0 3.8952164009112,0.1366742596813 -2.2551252847378,-3.0751708428246 -2.3917995444194,-3.5535307517085 -8.2004555808656,-12.0956719817771 -21.4578587699316,30.341685649203 -16.7425968109339,0 29.3166287015945,-41.3439635535311 1.623006833713,-1.8792710706147 1.9988610478361,-1.6742596810932 2.4772209567197,-1.1788154897494 3.0580865603645,-0.3929384965835 2.9384965831435,0.3758542141229 2.3917995444193,1.1275626423688 2.015945330296,1.6230068337132 1.6742596810936,1.9988610478357 28.5649202733485,41.3439635535311 -53.1662870159454,0"
       style="font-style:normal;font-variant:normal;font-weight:normal;font-stretch:normal;font-size:80px;line-height:125%;font-family:Ethnocentric;-inkscape-font-specification:Ethnocentric;text-align:center;letter-spacing:0px;word-spacing:0px;text-anchor:middle;fill:#000000;fill-opacity:1;stroke:none;stroke-width:1px;stroke-linecap:butt;stroke-linejoin:miter;stroke-opacity:1" />
    <path
       id="path4433"
       d="m 230.193621868053,879.9049326590757 -9.1571753986331,11.8906605922554 -16.3325740318908,0 0,33.8268792710708 -14.1457858769932,0 0,-33.8268792710708 -21.4578587699316,0 9.1571753986333,-11.8906605922554 51.9362186788154,0 0,0"
       style="font-style:normal;font-variant:normal;font-weight:normal;font-stretch:normal;font-size:80px;line-height:125%;font-family:Ethnocentric;-inkscape-font-specification:Ethnocentric;text-align:center;letter-spacing:0px;word-spacing:0px;text-anchor:middle;fill:#000000;fill-opacity:1;stroke:none;stroke-width:1px;stroke-linecap:butt;stroke-linejoin:miter;stroke-opacity:1" />
    <path
       id="path4364"
       d="m 154.1109054671419,898.1509463265018 7.3974943052391,0.7858769931665 5.3815489749431,2.3576309794988 3.2801822323461,3.8781321184509 1.0933940774488,5.4840546697036 -0.2733485193622,3.3143507972668 -0.8200455580866,2.9726651480638 -1.4179954441912,2.5797266514805 -2.0671981776766,2.1355353075171 -2.7334851936219,1.6913439635532 -3.4168564920273,1.2471526195902 -4.0660592255124,0.7687927107062 -4.8177676537586,0.2562642369022 -42.5740318910025,0 9.0888382687928,-11.7539863325743 34.5785876996584,0 2.1867881548975,-0.1879271070616 1.5034168564918,-0.5637813211844 0.8712984054671,-1.0592255125282 0.2904328018223,-1.5375854214126 -0.2904328018223,-1.5205011389518 -0.8712984054671,-1.007972665148 -1.5034168564918,-0.5637813211852 -2.1867881548976,-0.1879271070612 -24.8747152623007,0 -4.1343963553532,-0.2391799544421 -3.5193621867881,-0.7175398633258 -2.9384965831435,-1.1446469248287 -2.3917995444191,-1.5205011389523 -1.8451025056947,-1.879271070615 -1.2984054669705,-2.2209567198181 -0.7687927107061,-2.5797266514802 -0.2562642369022,-2.8189066059227 0.2733485193622,-3.0580865603644 0.8200455580866,-2.7505694760822 1.4521640091118,-2.46013667426 2.0330296127563,-2.0501138952159 2.7164009111616,-1.6400911161734 3.365603644647,-1.2300683371294 4.1173120728929,-0.7687927107062 4.8348519365603,-0.2562642369026 39.7038724373578,0 -9.0888382687928,11.8906605922554 -31.7084282460137,0 -2.1526195903191,0.1708428246014 -1.5375854214123,0.5125284738037 -0.8712984054669,0.956719817768 -0.2904328018223,1.5034168564916 0.2904328018223,1.520501138952 0.8712984054669,1.0079726651485 1.5375854214123,0.5125284738044 2.1526195903191,0.1708428246011 24.874715261959,0"
       style="font-style:normal;font-variant:normal;font-weight:normal;font-stretch:normal;font-size:80px;line-height:125%;font-family:Ethnocentric;-inkscape-font-specification:Ethnocentric;text-align:center;letter-spacing:0px;word-spacing:0px;text-anchor:middle;fill:#000000;fill-opacity:1;stroke:none;stroke-width:1px;stroke-linecap:butt;stroke-linejoin:miter;stroke-opacity:1" />
  </g>
</svg>
